<svg width="990" height="521" viewBox="0 0 990 521" version="1.1" xmlns="http://www.w3.org/2000/svg" xmlns:xlink="http://www.w3.org/1999/xlink">
<title>JMARK NEL</title>
<g id="Canvas" transform="translate(-6147 -1043)">
<g id="JMARK NEL">
<use xlink:href="#path0_fill" transform="translate(6155 1044)" fill="#D9D9D9" fill-opacity="0.05"/>
</g>
</g>
<defs>
<path id="path0_fill" d="M 76.5 -0.2L 76.5 129.1C 76.5 146.2 76.2 153.4 74.7 159.7C 72.6 169.9 67.5 174.7 58.8 174.7C 47.4 174.7 35.7 167.8 21.9 152.5L -7.5 187C 16.8 209.2 36.6 217.6 65.1 217.6C 93.3 217.6 112.2 208.6 121.8 190.3C 128.1 178.9 129.9 165.4 129.9 128.8L 129.9 -0.2L 76.5 -0.2ZM 171.893 214L 222.893 214L 222.893 98.5L 255.593 166L 289.793 166L 322.493 98.5L 322.493 214L 373.493 214L 373.493 -0.2L 323.993 -0.2L 272.693 106.3L 221.393 -0.2L 171.893 -0.2L 171.893 214ZM 534.476 176.2L 545.876 214L 603.476 214L 526.076 -0.2L 474.176 -0.2L 397.076 214L 454.676 214L 466.076 176.2L 534.476 176.2ZM 521.876 133.9L 478.676 133.9L 500.576 61.6L 521.876 133.9ZM 669.734 131.2L 684.134 131.2L 723.134 214L 782.234 214L 736.034 127C 762.734 118.9 772.934 101.5 772.934 64.6C 772.934 40.9 768.434 26.5 757.334 15.4C 745.934 4 730.334 -0.2 700.334 -0.2L 616.334 -0.2L 616.334 214L 669.734 214L 669.734 131.2ZM 668.834 90.7L 668.834 42.1L 694.934 42.1C 713.834 42.1 720.134 48.1 720.134 66.4C 720.134 84.7 713.834 90.7 694.934 90.7L 668.834 90.7ZM 811.751 214L 864.551 214L 864.551 138.1L 874.451 124.6L 920.051 214L 981.851 214L 908.951 88.6L 980.051 -0.2L 917.651 -0.2L 864.551 75.4L 864.551 -0.2L 811.751 -0.2L 811.751 214ZM 21.6 520L 73.2 520L 73.2 394.9L 138.9 520L 190.8 520L 190.8 305.8L 139.2 305.8L 139.2 430.9L 73.5 305.8L 21.6 305.8L 21.6 520ZM 234.302 520L 374.702 520L 374.702 476.8L 287.102 476.8L 287.102 433.6L 359.402 433.6L 359.402 390.4L 287.102 390.4L 287.102 349L 372.902 349L 372.902 305.8L 234.302 305.8L 234.302 520ZM 408.905 520L 549.005 520L 549.005 476.8L 462.305 476.8L 462.305 305.8L 408.905 305.8L 408.905 520Z"/>
</defs>
</svg>
